
    <svg data-v-c8953f58="" version="1.0" xmlns="http://www.w3.org/2000/svg" xmlns:xlink="http://www.w3.org/1999/xlink" width="100%" height="100%" viewBox="0 0 340.000000 250.000000" preserveAspectRatio="xMidYMid meet" color-interpolation-filters="sRGB" class="el-tooltip" style="margin: auto;">
    <rect data-v-c8953f58="" x="0" y="0" width="100%" height="100%" fill="#fff" fill-opacity="1"></rect>
    <rect data-v-c8953f58="" x="0" y="0" width="100%" height="100%" fill="url(#watermark)" fill-opacity="1" class="watermarklayer"></rect>
    <g data-v-c8953f58="" class="iconmbgsvg" transform="translate(74.98017120361328,20.49439239501953)">
        <g fill="#1abcc1" hollow-target="textFill" mask="url(#cbd5a8fad30079d2c090a46a9118a4b0)">
            <g>
                <rect fill="#1abcc1" fill-opacity="0" stroke-width="2" x="0" y="0" width="190" height="208.9999999999998" class="image-rect"></rect> <svg x="0" y="0" width="190" height="208.9999999999998" filtersec="colorsb3388454688" class="image-svg-svg"><svg xmlns="http://www.w3.org/2000/svg" viewBox="0 0 92 101.2">
                        <g fill-rule="evenodd" clip-rule="evenodd">
                            <path d="M23.7 0c9.1 0 16.6 7.5 16.6 16.6v68c0 9.1-7.5 16.6-16.6 16.6-9.1 0-16.6-7.5-16.6-16.6v-68C7.1 7.5 14.6 0 23.7 0z" fill="#1abcc1"></path>
                            <path d="M89.8 8.3c4.6 7.9 1.8 18.1-6.1 22.7l-34 19.6 34 19.6c7.9 4.6 10.6 14.8 6.1 22.7-4.6 7.9-14.8 10.6-22.7 6.1L8.3 65c-1.3-.7-2.4-1.6-3.4-2.7l-.2-.2c-.9-1-1.8-2-2.5-3.2C.7 56.3 0 53.4 0 50.6c0-2.8.7-5.7 2.2-8.3.7-1.2 1.5-2.3 2.5-3.3l.2-.2c1-1 2.2-1.9 3.4-2.7l58.9-34C75-2.3 85.3.4 89.8 8.3z" fill="#ec1c6c"></path>
                            <path d="M40.3 83.4L8.3 65c-.4-.2-.8-.5-1.2-.7V37c.4-.3.8-.5 1.2-.7l32-18.5v65.6z" fill="#b6418a"></path>
                        </g>
                    </svg></svg>
                <!---->
            </g>
            <g transform="translate(42.549827575683594,66.51435852050781)">
                <g class="tp-name" transform="translate(0.000003814697265625,0)">
                    <g>
                        <path d="M6.12-60.03L18.90-60.03L18.90 0L6.12 0L6.12-60.03ZM41.13 0L19.35-30.33L42.30-60.03L59.13-60.03L34.02-30.33L57.96 0L41.13 0ZM92.70-10.71L111.06-10.71L111.06 0L90.09 0Q84.15 0 81-0.63L81-0.63Q69.93-2.79 65.25-12.96L65.25-12.96Q62.19-19.80 62.19-29.88L62.19-29.88Q62.19-41.94 66.87-49.50L66.87-49.50Q70.29-54.99 76.00-57.51Q81.72-60.03 90.72-60.03L90.72-60.03L111.06-60.03L111.06-49.32L92.16-49.32Q83.61-49.32 79.65-44.73L79.65-44.73Q76.32-40.95 76.32-31.05L76.32-31.05Q76.32-17.73 81.45-13.59L81.45-13.59Q85.05-10.71 92.70-10.71L92.70-10.71Z" transform="translate(-6.12, 60.03)"></path>
                    </g>
                    <g fill="#1abcc1" transform="translate(107.93999481201172,0)">
                        <path d="" transform="translate(0, 60.03)"></path>
                    </g>
                </g>
                <g class="tp-slogan" fill="#ec1c6c" transform="translate(0,67.02999877929688)">
                    <rect x="0" height="1" y="3.9750003814697266" width="20.499996185302734"></rect>
                    <rect height="1" y="3.9750003814697266" width="20.499996185302734" x="84.43999862670898"></rect>
                    <g transform="translate(23.499996185302734,0)">
                        <path d="M3.42-4.31L2.06-3.05L2.06 0L0.89 0L0.89-8.58L2.06-8.58L2.06-4.41L6.23-8.58L7.88-8.58L4.27-5.11L7.97 0L6.42 0L3.42-4.31ZM14.53 0L13.69-2.48L10.22-2.48L9.33 0L8.16 0L11.39-8.58L12.70-8.58L15.80 0L14.53 0ZM11.95-7.31L10.59-3.52L13.27-3.52L12-7.31L11.95-7.31ZM25.08-8.58L25.08 0L23.95 0L23.95-5.06Q23.95-5.77 23.95-7.22L23.95-7.22L21.52 0L20.34 0L17.95-7.22L17.91-7.22Q17.91-6.70 17.95-5.67L17.95-5.67Q17.95-5.16 17.95-5.06L17.95-5.06L17.95 0L16.78 0L16.78-8.58L18.47-8.58L20.95-1.31L23.39-8.58L25.08-8.58ZM33.94-6.05L33.94-6.05L32.81-6.05Q32.39-7.78 30.42-7.83L30.42-7.83Q27.70-7.69 27.61-4.36L27.61-4.36Q27.61-0.80 30.47-0.80L30.47-0.80Q32.44-0.84 32.91-3.19L32.91-3.19L34.03-3.19Q33.52 0.05 30.23 0.14L30.23 0.14Q26.48 0 26.39-4.31L26.39-4.31Q26.58-8.63 30.42-8.81L30.42-8.81Q33.47-8.72 33.94-6.05ZM36.56-5.06L41.06-5.06L41.06-8.58L42.23-8.58L42.23 0L41.06 0L41.06-3.98L36.56-3.98L36.56 0L35.39 0L35.39-8.58L36.56-8.58L36.56-5.06ZM49.69 0L48.84-2.48L45.38-2.48L44.48 0L43.31 0L46.55-8.58L47.86-8.58L50.95 0L49.69 0ZM47.11-7.31L45.75-3.52L48.42-3.52L47.16-7.31L47.11-7.31ZM53.39-8.58L57.70-1.64L57.70-8.58L58.83-8.58L58.83 0L57.52 0L53.16-6.94L53.11-6.94L53.11 0L51.98 0L51.98-8.58L53.39-8.58Z" transform="translate(-0.890625, 8.8125)"></path>
                    </g>
                </g>
            </g>
        </g>
    </g>
    <mask id="cbd5a8fad30079d2c090a46a9118a4b0">
        <g fill="white">
            <rect fill-opacity="0" stroke-width="2" x="0" y="0" width="190" height="208.9999999999998" class="image-rect"></rect> <svg x="0" y="0" width="190" height="208.9999999999998" filtersec="colorsb3388454688" class="image-svg-svg"><svg xmlns="http://www.w3.org/2000/svg" viewBox="0 0 92 101.2">
                    <g clip-rule="evenodd">
                        <path d="M23.7 0c9.1 0 16.6 7.5 16.6 16.6v68c0 9.1-7.5 16.6-16.6 16.6-9.1 0-16.6-7.5-16.6-16.6v-68C7.1 7.5 14.6 0 23.7 0z"></path>
                        <path d="M89.8 8.3c4.6 7.9 1.8 18.1-6.1 22.7l-34 19.6 34 19.6c7.9 4.6 10.6 14.8 6.1 22.7-4.6 7.9-14.8 10.6-22.7 6.1L8.3 65c-1.3-.7-2.4-1.6-3.4-2.7l-.2-.2c-.9-1-1.8-2-2.5-3.2C.7 56.3 0 53.4 0 50.6c0-2.8.7-5.7 2.2-8.3.7-1.2 1.5-2.3 2.5-3.3l.2-.2c1-1 2.2-1.9 3.4-2.7l58.9-34C75-2.3 85.3.4 89.8 8.3z"></path>
                        <path d="M40.3 83.4L8.3 65c-.4-.2-.8-.5-1.2-.7V37c.4-.3.8-.5 1.2-.7l32-18.5v65.6z"></path>
                    </g>
                </svg></svg>
        </g>
        <g transform="translate(42.549827575683594,66.51435852050781)" fill="black">
            <g class="tp-name" transform="translate(0.000003814697265625,0)">
                <g>
                    <path d="M6.12-60.03L18.90-60.03L18.90 0L6.12 0L6.12-60.03ZM41.13 0L19.35-30.33L42.30-60.03L59.13-60.03L34.02-30.33L57.96 0L41.13 0ZM92.70-10.71L111.06-10.71L111.06 0L90.09 0Q84.15 0 81-0.63L81-0.63Q69.93-2.79 65.25-12.96L65.25-12.96Q62.19-19.80 62.19-29.88L62.19-29.88Q62.19-41.94 66.87-49.50L66.87-49.50Q70.29-54.99 76.00-57.51Q81.72-60.03 90.72-60.03L90.72-60.03L111.06-60.03L111.06-49.32L92.16-49.32Q83.61-49.32 79.65-44.73L79.65-44.73Q76.32-40.95 76.32-31.05L76.32-31.05Q76.32-17.73 81.45-13.59L81.45-13.59Q85.05-10.71 92.70-10.71L92.70-10.71Z" transform="translate(-6.12, 60.03)"></path>
                </g>
                <g transform="translate(107.93999481201172,0)">
                    <path d="" transform="translate(0, 60.03)"></path>
                </g>
            </g>
            <g class="tp-slogan" transform="translate(0,67.02999877929688)">
                <rect x="0" height="1" y="3.9750003814697266" width="20.499996185302734"></rect>
                <rect height="1" y="3.9750003814697266" width="20.499996185302734" x="84.43999862670898"></rect>
                <g transform="translate(23.499996185302734,0)">
                    <path d="M3.42-4.31L2.06-3.05L2.06 0L0.89 0L0.89-8.58L2.06-8.58L2.06-4.41L6.23-8.58L7.88-8.58L4.27-5.11L7.97 0L6.42 0L3.42-4.31ZM14.53 0L13.69-2.48L10.22-2.48L9.33 0L8.16 0L11.39-8.58L12.70-8.58L15.80 0L14.53 0ZM11.95-7.31L10.59-3.52L13.27-3.52L12-7.31L11.95-7.31ZM25.08-8.58L25.08 0L23.95 0L23.95-5.06Q23.95-5.77 23.95-7.22L23.95-7.22L21.52 0L20.34 0L17.95-7.22L17.91-7.22Q17.91-6.70 17.95-5.67L17.95-5.67Q17.95-5.16 17.95-5.06L17.95-5.06L17.95 0L16.78 0L16.78-8.58L18.47-8.58L20.95-1.31L23.39-8.58L25.08-8.58ZM33.94-6.05L33.94-6.05L32.81-6.05Q32.39-7.78 30.42-7.83L30.42-7.83Q27.70-7.69 27.61-4.36L27.61-4.36Q27.61-0.80 30.47-0.80L30.47-0.80Q32.44-0.84 32.91-3.19L32.91-3.19L34.03-3.19Q33.52 0.05 30.23 0.14L30.23 0.14Q26.48 0 26.39-4.31L26.39-4.31Q26.58-8.63 30.42-8.81L30.42-8.81Q33.47-8.72 33.94-6.05ZM36.56-5.06L41.06-5.06L41.06-8.58L42.23-8.58L42.23 0L41.06 0L41.06-3.98L36.56-3.98L36.56 0L35.39 0L35.39-8.58L36.56-8.58L36.56-5.06ZM49.69 0L48.84-2.48L45.38-2.48L44.48 0L43.31 0L46.55-8.58L47.86-8.58L50.95 0L49.69 0ZM47.11-7.31L45.75-3.52L48.42-3.52L47.16-7.31L47.11-7.31ZM53.39-8.58L57.70-1.64L57.70-8.58L58.83-8.58L58.83 0L57.52 0L53.16-6.94L53.11-6.94L53.11 0L51.98 0L51.98-8.58L53.39-8.58Z" transform="translate(-0.890625, 8.8125)"></path>
                </g>
            </g>
        </g>
    </mask>
</svg>